<svg xmlns="http://www.w3.org/2000/svg" viewBox="0 0 960 520" fill="none">
  <title>goal-modernise</title>
  <defs>
    <linearGradient id="paper" x1="0" y1="0" x2="1" y2="1">
      <stop stop-color="#f2efe8" />
      <stop offset="1" stop-color="#bdb8ac" />
    </linearGradient>
    <linearGradient id="slab" x1="0" y1="0" x2="0.8" y2="1">
      <stop stop-color="#343632" />
      <stop offset="1" stop-color="#131512" />
    </linearGradient>
    <filter id="shadow" x="-60%" y="-40%" width="220%" height="220%">
      <feDropShadow dx="0" dy="18" stdDeviation="18" flood-color="#000" flood-opacity=".3" />
    </filter>
    <pattern id="grid" width="40" height="40" patternUnits="userSpaceOnUse">
      <path d="M40 0H0V40" fill="none" stroke="#9a9986" stroke-opacity=".08" />
    </pattern>
  </defs>
  <g stroke-linejoin="round" stroke-linecap="round" stroke="#aaa79d" stroke-width="1.5">
    <path d="M112 133L239 68L366 132V333L239 401L112 336Z" fill="url(#slab)" stroke="#969d85" />
    <path d="M112 133L239 200L366 132M239 200V401" stroke="#969d85" />
    <path d="M139 171V310L211 348V210M264 213V354L337 315V173" stroke="#656f58" />
    <path d="M155 214L194 235M155 245L194 266M155 276L194 297" stroke="#aab596" stroke-width="4" />
    <path
      d="M366 245H448V159H531M448 245V344H531M624 159H677M624 344H677M722 205V298"
      stroke="#7f8b6b"
      stroke-width="2"
    />
    <g transform="translate(531 112)">
      <rect width="92" height="92" rx="12" fill="url(#slab)" stroke="#c5c1b5" />
      <rect x="14" y="14" width="64" height="64" rx="4" stroke="#c5c1b5" opacity=".4" />
      <path d="M46.0 27V65M27 46.0H65" stroke="#c5c1b5" />
      <circle cx="46.0" cy="46.0" r="8" fill="#c5c1b5" stroke="none" />
    </g>
    <g transform="translate(677 112)">
      <rect width="92" height="92" rx="12" fill="url(#slab)" stroke="#c5c1b5" />
      <rect x="14" y="14" width="64" height="64" rx="4" stroke="#c5c1b5" opacity=".4" />
      <path d="M46.0 27V65M27 46.0H65" stroke="#c5c1b5" />
      <circle cx="46.0" cy="46.0" r="8" fill="#c5c1b5" stroke="none" />
    </g>
    <g transform="translate(531 298)">
      <rect width="92" height="92" rx="12" fill="url(#slab)" stroke="#ff4f00" />
      <rect x="14" y="14" width="64" height="64" rx="4" stroke="#ff4f00" opacity=".4" />
      <path d="M46.0 27V65M27 46.0H65" stroke="#ff4f00" />
      <circle cx="46.0" cy="46.0" r="8" fill="#ff4f00" stroke="none" />
    </g>
    <g transform="translate(677 298)">
      <rect width="92" height="92" rx="12" fill="url(#slab)" stroke="#c5c1b5" />
      <rect x="14" y="14" width="64" height="64" rx="4" stroke="#c5c1b5" opacity=".4" />
      <path d="M46.0 27V65M27 46.0H65" stroke="#c5c1b5" />
      <circle cx="46.0" cy="46.0" r="8" fill="#c5c1b5" stroke="none" />
    </g>
    <path d="M366 245H448V344H530" stroke="#ff4f00" stroke-width="2" />
    <circle cx="447" cy="290" r="6" fill="#ff4f00" stroke="#171b12" stroke-width="2" />
  </g>
</svg>
