<?xml version="1.0" encoding="UTF-8"?> <!-- Generator: Adobe Illustrator 24.3.0, SVG Export Plug-In . SVG Version: 6.00 Build 0) --> <svg xmlns="http://www.w3.org/2000/svg" xmlns:xlink="http://www.w3.org/1999/xlink" version="1.1" id="Layer_1" x="0px" y="0px" width="377px" height="116.8px" viewBox="0 0 377 116.8" style="enable-background:new 0 0 377 116.8;" xml:space="preserve"> <style type="text/css"> .st0{fill:#293B8E;} .st1{fill:#3CC1CF;} .st2{fill:#F1B741;} .st3{fill:#DD645A;} </style> <g> <g> <g> <path class="st0" d="M47.6,39.3c7.6,3.3,11.5,10,11.5,18.6C59.1,73,48.9,82,31.5,82H2.2c-1,0-1.6-0.6-1.6-1.7V3 c0-1.1,0.6-1.7,1.6-1.7h29.3c15.2,0,24.1,8.1,24.1,22.1C55.6,30.5,52.7,36.2,47.6,39.3z M31,13.5H14.1V34H31 c6.3,0,10.8-3.2,10.8-10.3C41.9,16.8,37.2,13.5,31,13.5z M31.4,69.8c8.1,0,13.9-3.4,13.9-12.1c0-7.1-4.3-12-14-12H14.1v24H31.4z"></path> <path class="st0" d="M84.1,83.4c-12.2,0-18.8-8.1-18.8-21.9V3c0-1.1,0.6-1.7,1.7-1.7h9.7c1.1,0,1.7,0.6,1.7,1.7v58 c0,7.4,2.4,10.4,7.4,10.4c1.4,0,2.8-0.1,4.3-0.2c1.1,0,1.7,0.6,1.7,1.7v8.3c0,0.9-0.3,1.7-1.2,1.8C88.6,83.3,86.3,83.4,84.1,83.4 z"></path> <path class="st0" d="M144.4,23.6c1,0,1.7,0.6,1.7,1.6v51.7c0,1-0.5,1.7-1.2,2c-6.4,2.8-14.2,4.5-22.1,4.5 c-15.3,0-25.8-7.3-25.8-25.4V25.2c0-1,0.6-1.6,1.7-1.6h9.8c1,0,1.6,0.6,1.6,1.6v32.6c0,10.6,4.7,13.9,12.8,13.9 c3.7,0,7.7-0.5,10.3-1.4V25.2c0-1,0.6-1.6,1.6-1.6H144.4z"></path> <path class="st0" d="M203.1,56.8c0,1-0.6,1.6-1.7,1.6h-34.3v3.2c0,6.9,4.7,10.4,12,10.4c7,0,11.7-2.4,15.9-5.2 c0.8-0.6,1.7-0.5,2.3,0.3l4.6,6.2c0.7,0.8,0.6,1.7-0.3,2.4c-6,4.7-13.3,7.8-22.9,7.8c-12.8,0-24.7-7-24.7-22v-16 c0-16.6,12.4-23.1,24.8-23.1c12.3,0,24.4,6.5,24.4,23.1V56.8z M178.8,33.7c-6.7,0-11.6,3.2-11.6,11.5v2.9h23.2v-2.9 C190.4,37,185.1,33.7,178.8,33.7z"></path> <path class="st0" d="M237.7,83.4c-11.3,0-19.6-3.6-28.8-10.8c-0.8-0.8-0.9-1.5-0.3-2.4l5.6-7.9c0.6-0.8,1.4-0.9,2.3-0.3 c7.3,5.3,14.1,8.3,21.8,8.6c8.2,0,16.4-3.5,16.4-11.2c0-8.1-8.5-10.2-18.3-12.2c-11.8-2.5-27.4-7.9-27.4-24.7 C208.9,6.8,222.8,0,239,0c9.7,0,17.4,2.7,26.5,8.9c0.9,0.6,1,1.5,0.5,2.3l-5.4,7.8c-0.6,0.9-1.5,0.9-2.4,0.3 c-6.7-4.3-13.3-6.3-20.2-6.5c-9.7,0-15.3,3.8-15.3,9.9c0,7.2,7.2,9.1,17.2,11.4c13.2,2.9,28.8,7.2,28.8,25.1 C268.6,76.1,254.1,83.4,237.7,83.4z"></path> <path class="st0" d="M312.5,82c-0.9,0-1.7-0.2-2.1-1l-17.7-23.2l-4,4.1v18.5c0,1.1-0.6,1.7-1.7,1.7h-9.7c-1.1,0-1.7-0.6-1.7-1.7 V3c0-1.1,0.6-1.7,1.7-1.7h9.7c1.1,0,1.7,0.6,1.7,1.7v42.9l19.9-21.6c0.6-0.7,1.1-0.8,2-0.8h11.6c1.5,0,1.8,0.9,0.9,1.9 l-21.8,23.1L325.4,80c0.8,1.1,0.5,2-1,2H312.5z"></path> <path class="st0" d="M363.9,25.2c0-1,0.6-1.6,1.7-1.6h9.7c1.1,0,1.7,0.6,1.7,1.6v53.1c0,17.4-7.9,26.3-25.2,26.3 c-9.6,0-16.2-2.3-22.1-7.1c-0.9-0.7-0.9-1.4-0.3-2.3l4.9-6.9c0.6-0.9,1.4-1.1,2.1-0.6c4.3,2.9,9.3,5.2,15.3,5.2 c7.8,0,12.8-3.4,12.3-14.7c-3.6,1.1-7.9,2-12.1,2c-11.7,0-24.1-7.4-24.1-23V25.2c0-1,0.7-1.6,1.7-1.6h9.8c1,0,1.6,0.6,1.6,1.6 v31.6c0,8.7,6.1,11.7,12.9,11.7c3.8,0.1,7.7-0.9,10.2-2.3V25.2z"></path> </g> </g> <g> <path class="st0" d="M140,93.7c3.2,0,5.6,1,7.7,3c0.3,0.3,0.3,0.6,0,0.9l-2,2c-0.2,0.3-0.5,0.3-0.8,0c-1.3-1.2-3.1-1.9-4.9-1.9 c-4.1,0-7.1,3.4-7.1,7.5c0,4,3.1,7.4,7.2,7.4c1.9,0,3.6-0.7,4.9-1.8c0.3-0.2,0.6-0.2,0.8,0l2,2c0.3,0.2,0.2,0.6,0,0.9 c-2.2,2.1-4.9,3.1-7.8,3.1c-6.4,0-11.6-5.1-11.6-11.5S133.6,93.7,140,93.7z"></path> <path class="st0" d="M163.4,93.7c6.4,0,11.5,5.2,11.5,11.6s-5.1,11.5-11.5,11.5c-6.4,0-11.5-5.1-11.5-11.5S157,93.7,163.4,93.7z M163.4,112.6c4,0,7.4-3.3,7.4-7.3c0-4-3.3-7.4-7.4-7.4c-4,0-7.3,3.4-7.3,7.4C156,109.3,159.3,112.6,163.4,112.6z"></path> <path class="st0" d="M183,94.2c0-0.3,0.2-0.5,0.6-0.5h0.5c0.3,0,0.4,0.1,0.5,0.3l7,15.1c0.1,0,0.1,0,0.1,0l7-15.1 c0.1-0.2,0.3-0.3,0.5-0.3h0.5c0.4,0,0.5,0.2,0.6,0.5l3.8,21.5c0.1,0.4-0.2,0.7-0.6,0.7h-2.9c-0.3,0-0.5-0.3-0.6-0.5l-1.9-12.1 c0,0-0.1,0-0.1,0l-5.6,12.6c-0.1,0.2-0.3,0.4-0.5,0.4h-0.6c-0.3,0-0.4-0.2-0.5-0.4l-5.7-12.6c0,0-0.1,0-0.1,0l-1.9,12.1 c0,0.2-0.3,0.5-0.6,0.5h-2.9c-0.4,0-0.7-0.3-0.6-0.7L183,94.2z"></path> <path class="st0" d="M212.5,94.2c0-0.3,0.2-0.5,0.6-0.5h0.5c0.3,0,0.4,0.1,0.5,0.3l7,15.1c0.1,0,0.1,0,0.1,0l7-15.1 c0.1-0.2,0.3-0.3,0.5-0.3h0.5c0.4,0,0.5,0.2,0.6,0.5l3.8,21.5c0.1,0.4-0.2,0.7-0.6,0.7h-2.9c-0.3,0-0.5-0.3-0.6-0.5l-1.9-12.1 c0,0-0.1,0-0.1,0l-5.6,12.6c-0.1,0.2-0.3,0.4-0.5,0.4H221c-0.3,0-0.4-0.2-0.5-0.4l-5.7-12.6c0,0-0.1,0-0.1,0l-1.9,12.1 c0,0.2-0.3,0.5-0.6,0.5h-2.9c-0.4,0-0.7-0.3-0.6-0.7L212.5,94.2z"></path> <path class="st0" d="M239.7,94.6c0-0.3,0.3-0.6,0.6-0.6h13c0.4,0,0.6,0.3,0.6,0.6v2.6c0,0.3-0.3,0.6-0.6,0.6h-9.5v5.2h7.9 c0.3,0,0.6,0.3,0.6,0.6v2.7c0,0.4-0.3,0.6-0.6,0.6h-7.9v5.6h9.5c0.4,0,0.6,0.3,0.6,0.6v2.6c0,0.3-0.3,0.6-0.6,0.6h-13 c-0.4,0-0.6-0.3-0.6-0.6V94.6z"></path> <path class="st0" d="M260.2,94.6c0-0.3,0.3-0.6,0.6-0.6h9.2c3.8,0,7,3.1,7,6.9c0,2.9-2,5.3-4.7,6.5l4.4,8.1c0.2,0.4,0,0.9-0.5,0.9 h-3.4c-0.3,0-0.4-0.2-0.5-0.3l-4.3-8.5h-3.6v8.2c0,0.3-0.3,0.6-0.6,0.6h-2.9c-0.4,0-0.6-0.3-0.6-0.6V94.6z M269.6,104.2 c1.7,0,3.2-1.5,3.2-3.3c0-1.7-1.5-3.1-3.2-3.1h-5.2v6.4H269.6z"></path> <path class="st0" d="M293,93.7c3.2,0,5.6,1,7.7,3c0.3,0.3,0.3,0.6,0,0.9l-2,2c-0.2,0.3-0.5,0.3-0.8,0c-1.3-1.2-3.1-1.9-4.9-1.9 c-4.1,0-7.1,3.4-7.1,7.5c0,4,3.1,7.4,7.2,7.4c1.9,0,3.6-0.7,4.9-1.8c0.3-0.2,0.6-0.2,0.8,0l2,2c0.3,0.2,0.2,0.6,0,0.9 c-2.2,2.1-4.9,3.1-7.8,3.1c-6.4,0-11.6-5.1-11.6-11.5S286.6,93.7,293,93.7z"></path> <path class="st0" d="M306.6,94.6c0-0.3,0.3-0.6,0.6-0.6h13c0.4,0,0.6,0.3,0.6,0.6v2.6c0,0.3-0.3,0.6-0.6,0.6h-9.5v5.2h7.9 c0.3,0,0.6,0.3,0.6,0.6v2.7c0,0.4-0.3,0.6-0.6,0.6h-7.9v5.6h9.5c0.4,0,0.6,0.3,0.6,0.6v2.6c0,0.3-0.3,0.6-0.6,0.6h-13 c-0.4,0-0.6-0.3-0.6-0.6V94.6z"></path> </g> <circle class="st1" cx="11.5" cy="105.3" r="11.5"></circle> <circle class="st0" cx="43.5" cy="105.3" r="11.5"></circle> <circle class="st2" cx="107.5" cy="105.3" r="11.5"></circle> <circle class="st3" cx="75.5" cy="105.3" r="11.5"></circle> </g> </svg> 