<?xml version="1.0" encoding="utf-8"?>
<svg width="451" height="127" viewBox="0 0 451 127" fill="none" xmlns="http://www.w3.org/2000/svg">
<path d="M102.583 5.13818L110.757 9.53265L114.912 17.4765V20.7216L100.827 27.0767L94.071 28.8683L93.4292 25.1837L96.9759 12.7102L97.6176 7.70725L102.583 5.13818Z" fill="#E3F3F5"/>
<path d="M121.701 19.268L110.926 9.70162L99.9146 0L92.7537 1.18312L93.5306 25.9273C83.6675 17.7131 71.0346 12.7777 57.2533 12.7101C25.8063 12.6087 0.101424 38.1642 9.04504e-05 69.6692C-0.067465 94.2782 15.9769 116.419 39.216 124.127C32.2916 121.558 21.8543 113.005 17.0916 106.921C8.64718 96.1373 5.77608 83.4272 5.84363 69.703C5.87741 56.0125 11.2818 43.1334 20.976 33.4655C30.704 23.7977 43.6071 18.5244 57.2871 18.5582C70.9671 18.592 83.8364 24.0005 93.4968 33.7022C103.157 43.4376 108.427 56.3505 108.393 70.041C108.359 83.7314 102.988 96.6106 93.2604 106.278C84.6133 114.865 73.1964 120.104 61.104 121.017L59.8542 121.118L60.1244 35.2571C79.7155 38.6713 95.0168 55.8097 94.9492 76.8693C94.9492 80.4863 94.071 84.4075 93.2266 87.7879C94.983 83.0892 95.9626 78.0186 95.9626 72.7115C96.0301 51.1448 80.5262 32.5528 60.1582 30.4908C58.7057 30.3556 54.3484 30.119 54.3484 30.119L54.0444 126.932C55.1253 127 56.0711 127.034 56.9493 127.034C88.4301 127.135 114.135 101.58 114.236 70.0748C114.304 53.8829 107.548 39.2459 96.7057 28.8006L121.431 26.5696L121.735 19.3356L121.701 19.268ZM95.1519 27.3471L100.421 7.94384L105.589 8.82273L110.757 9.70162L112.243 14.7384L113.73 19.7751L95.1181 27.3809L95.1519 27.3471Z" fill="url(#paint0_linear_781_1190)"/>
<path d="M172.942 53.7139C173.685 53.7139 174.293 53.5111 174.698 53.1392C175.137 52.7336 175.374 52.1589 175.374 51.3814C175.374 50.6716 175.137 50.1307 174.698 49.7251C174.259 49.3194 173.685 49.1504 172.942 49.1504H135.584C134.705 49.1504 133.996 49.387 133.489 49.8941C132.983 50.4011 132.746 51.0772 132.746 51.9899V115.743C132.746 116.622 132.983 117.332 133.489 117.805C133.996 118.312 134.672 118.549 135.584 118.549H172.942C173.685 118.549 174.293 118.346 174.698 117.974C175.137 117.569 175.374 116.994 175.374 116.217C175.374 115.507 175.137 114.966 174.698 114.56C174.259 114.155 173.685 113.986 172.942 113.986H137.644V85.6582H170.983C171.726 85.6582 172.334 85.4554 172.739 85.0836C173.178 84.6779 173.415 84.1033 173.415 83.3258C173.415 82.6159 173.178 82.0751 172.739 81.6694C172.3 81.2638 171.726 81.061 170.983 81.061H137.644V53.7139H172.942Z" fill="#15BDC7"/>
<path d="M217.36 83.3932L207.733 81.4326C202.903 80.4861 199.356 78.9311 197.228 76.8353C195.1 74.7395 194.053 71.8323 194.053 68.2154C194.053 65.2068 194.83 62.5026 196.384 60.2715C197.937 58.0067 200.099 56.2489 202.869 54.9982C205.672 53.7474 208.983 53.139 212.732 53.139C216.481 53.139 219.859 53.7136 222.899 54.8291C225.939 55.9447 228.878 57.7363 231.614 60.1363C232.661 61.1842 233.877 61.0828 234.62 60.5081C234.958 60.2377 235.228 59.8659 235.431 59.3588C235.633 58.8518 235.633 58.3109 235.498 57.7363C235.329 57.1616 234.992 56.6545 234.519 56.2489C231.58 53.5784 228.27 51.5502 224.656 50.2657C221.075 48.9811 217.056 48.3389 212.766 48.3389C209.287 48.3389 206.078 48.8121 203.207 49.7586C200.336 50.7051 197.802 52.0911 195.674 53.815C193.546 55.5728 191.891 57.6687 190.776 60.0687C189.628 62.4688 189.02 65.2068 189.02 68.1816C189.02 73.1507 190.574 77.1395 193.614 80.0466C196.62 82.9537 201.281 85.0495 207.429 86.2665L217.056 88.2271C222.426 89.3088 226.311 90.8299 228.641 92.7568C230.938 94.6498 232.087 97.3202 232.087 100.667C232.087 104.791 230.499 108.171 227.324 110.673C224.149 113.208 219.285 114.492 212.935 114.492C208.341 114.492 204.288 113.952 200.944 112.87C197.6 111.788 194.391 110.03 191.418 107.698C190.371 106.819 189.189 106.853 188.378 107.495C188.007 107.799 187.703 108.205 187.534 108.678C187.331 109.185 187.331 109.726 187.534 110.267C187.703 110.774 188.074 111.281 188.581 111.721C190.608 113.343 192.904 114.729 195.438 115.845C197.937 116.96 200.707 117.805 203.646 118.414C206.584 118.988 209.692 119.293 212.968 119.293C216.684 119.293 220.062 118.853 223.034 117.974C226.007 117.095 228.574 115.811 230.668 114.154C232.728 112.498 234.384 110.504 235.498 108.239C236.613 105.94 237.187 103.405 237.187 100.633C237.187 95.9343 235.532 92.1821 232.289 89.4778C229.08 86.8411 224.081 84.7791 217.427 83.427L217.36 83.3932Z" fill="#15BDC7"/>
<path d="M297.987 49.1162H244.686C243.943 49.1162 243.335 49.319 242.862 49.6909C242.389 50.0965 242.152 50.6374 242.152 51.3472C242.152 52.0571 242.389 52.6318 242.862 53.0374C243.335 53.4769 243.943 53.6797 244.686 53.6797H268.904V116.554C268.904 117.298 269.107 117.906 269.546 118.38C269.985 118.853 270.593 119.09 271.336 119.09C272.181 119.09 272.789 118.853 273.194 118.38C273.566 117.906 273.768 117.298 273.768 116.554V53.7135H297.987C298.798 53.7135 299.439 53.5107 299.845 53.1388C300.284 52.7332 300.52 52.1585 300.52 51.3811C300.52 50.6712 300.284 50.1303 299.845 49.7247C299.406 49.319 298.798 49.15 297.987 49.15V49.1162Z" fill="#15BDC7"/>
<path d="M315.349 48.5415C314.606 48.5415 313.998 48.7443 313.559 49.1838C313.119 49.6232 312.917 50.2317 312.917 51.0768V116.588C312.917 117.332 313.119 117.94 313.559 118.413C313.998 118.887 314.606 119.123 315.349 119.123C316.193 119.123 316.801 118.887 317.207 118.413C317.578 117.94 317.781 117.332 317.781 116.588V51.0768C317.781 50.2655 317.578 49.6232 317.139 49.1838C316.7 48.7443 316.092 48.5415 315.349 48.5415Z" fill="#15BDC7"/>
<path d="M382.161 49.1162H345.782C344.904 49.1162 344.195 49.3528 343.688 49.8599C343.182 50.3669 342.945 51.043 342.945 51.9557V116.284C342.945 117.163 343.182 117.873 343.688 118.38C344.195 118.887 344.87 119.123 345.782 119.123C346.728 119.123 347.843 118.616 347.843 116.284V85.6241H380.236C380.979 85.6241 381.587 85.4212 381.992 85.0494C382.431 84.6438 382.668 84.0691 382.668 83.2916C382.668 82.5817 382.431 82.0409 381.992 81.6352C381.553 81.2296 380.979 81.0268 380.236 81.0268H347.843V53.7135H382.161C382.904 53.7135 383.512 53.5107 383.917 53.1388C384.357 52.7332 384.593 52.1585 384.593 51.3811C384.593 50.6712 384.357 50.1303 383.917 49.7247C383.478 49.319 382.904 49.15 382.161 49.15V49.1162Z" fill="#15BDC7"/>
<path d="M450.392 49.0149C450.02 48.6769 449.547 48.5078 449.007 48.5078C448.433 48.5078 447.926 48.6092 447.521 48.8459C447.115 49.0825 446.71 49.4881 446.372 50.029L423.775 80.6212L401.211 50.029C400.84 49.4543 400.435 49.0487 399.995 48.8121C399.151 48.3726 397.867 48.305 397.057 48.9473C396.651 49.2853 396.415 49.7586 396.415 50.367C396.415 50.9417 396.618 51.5502 397.091 52.1924L421.242 84.8129V116.385C421.242 117.197 421.444 117.839 421.883 118.312C422.323 118.785 422.931 119.022 423.674 119.022C425.261 119.022 426.106 118.076 426.106 116.385V84.9143L450.324 52.1924C450.831 51.5164 451.067 50.9079 451.034 50.3332C451 49.7586 450.797 49.2853 450.426 48.9473L450.392 49.0149Z" fill="#15BDC7"/>
<linearGradient id="paint0_linear_781_1190" x1="-5.13412" y1="89.8499" x2="109.524" y2="53.0551" gradientUnits="userSpaceOnUse">
<stop stop-color="#F69C99"/>
<stop offset="0.27" stop-color="#FBD5E2"/>
<stop offset="0.49" stop-color="#CBB7D3"/>
<stop offset="0.53" stop-color="#9BB8D0"/>
<stop offset="0.56" stop-color="#71BACD"/>
<stop offset="0.59" stop-color="#50BBCB"/>
<stop offset="0.63" stop-color="#36BBC9"/>
<stop offset="0.67" stop-color="#23BCC8"/>
<stop offset="0.7" stop-color="#18BCC7"/>
<stop offset="0.74" stop-color="#15BDC7"/>
</linearGradient>
</svg>
